<?xml version="1.0" standalone="no"?>
<!DOCTYPE svg PUBLIC "-//W3C//DTD SVG 20010904//EN"
 "http://www.w3.org/TR/2001/REC-SVG-20010904/DTD/svg10.dtd">
<svg version="1.0" xmlns="http://www.w3.org/2000/svg"
 width="1024.000000pt" height="1024.000000pt" viewBox="0 0 1024.000000 1024.000000"
 preserveAspectRatio="xMidYMid meet">

<g transform="translate(0.000000,1024.000000) scale(0.100000,-0.100000)"
fill="#000000" stroke="none">
<path d="M4234 8791 c-142 -36 -221 -174 -179 -316 62 -215 383 -235 476 -30
21 46 24 130 7 186 -15 52 -68 113 -121 137 -48 23 -137 34 -183 23z m146 -99
c51 -32 71 -74 71 -149 0 -100 -55 -157 -152 -158 -62 0 -94 17 -132 67 -41
55 -28 177 23 223 48 43 135 51 190 17z"/>
<path d="M5457 8789 c-158 -38 -235 -206 -162 -355 65 -133 249 -174 375 -83
40 29 41 31 25 49 -25 28 -54 34 -73 17 -24 -22 -96 -39 -129 -31 -87 21 -123
68 -123 159 0 104 58 165 156 165 38 0 61 -6 89 -26 l38 -25 28 27 c28 26 28
28 11 47 -40 46 -160 75 -235 56z"/>
<path d="M2650 8551 l0 -241 175 0 175 0 0 40 0 40 -125 0 -125 0 -2 198 -3
197 -47 3 -48 3 0 -240z"/>
<path d="M3117 8783 c-4 -3 -7 -111 -7 -240 l0 -233 45 0 45 0 0 240 0 240
-38 0 c-21 0 -42 -3 -45 -7z"/>
<path d="M3380 8550 l0 -240 44 0 43 0 -4 150 c-3 94 -1 150 5 150 6 0 18 -17
29 -37 10 -21 40 -77 67 -125 42 -78 51 -88 75 -88 24 0 33 11 79 95 29 52 52
97 52 100 0 11 40 58 41 49 1 -5 1 -73 -1 -151 l-2 -143 48 0 c49 0 49 0 47
32 -1 18 -2 126 -2 241 l-1 207 -39 0 -38 0 -70 -122 c-39 -68 -78 -138 -87
-155 -9 -18 -20 -33 -24 -33 -4 0 -47 70 -96 155 l-87 155 -40 0 -39 0 0 -240z"/>
<path d="M4697 8783 c-4 -3 -7 -111 -7 -240 l0 -233 50 0 49 0 3 153 3 152
123 -152 c120 -150 124 -153 161 -153 26 0 41 5 45 16 3 9 6 109 6 223 0 233
-3 245 -60 239 l-35 -3 -3 -152 c-1 -84 -6 -153 -10 -153 -4 0 -61 69 -127
154 -114 148 -122 155 -156 155 -20 1 -39 -2 -42 -6z"/>
<path d="M5840 8551 l0 -241 45 0 44 0 3 103 3 102 100 0 c146 1 135 9 135
-106 l0 -99 49 0 49 0 -4 113 c-1 61 -3 169 -3 240 l-1 127 -45 0 -44 0 -3
-97 -3 -98 -115 0 -115 0 -5 95 -5 95 -42 3 -43 3 0 -240z"/>
<path d="M6575 8769 c-4 -12 -49 -118 -101 -236 -52 -118 -94 -217 -94 -219 0
-2 20 -4 45 -4 45 0 45 0 70 55 l24 55 103 0 c57 0 109 -4 117 -9 8 -5 22 -29
31 -53 15 -42 17 -43 63 -46 34 -2 47 1 47 10 0 7 -44 114 -98 238 l-97 225
-52 3 c-45 3 -52 0 -58 -19z m98 -172 c20 -50 37 -95 37 -99 0 -5 -36 -8 -81
-8 -44 0 -79 4 -77 8 2 4 19 49 38 100 19 50 37 92 40 92 3 0 22 -42 43 -93z"/>
<path d="M7007 8784 c-4 -4 -7 -112 -7 -241 l0 -233 45 0 45 0 -2 238 -3 237
-35 3 c-20 2 -39 0 -43 -4z"/>
<path d="M7267 8783 c-4 -3 -7 -111 -7 -240 l0 -233 50 0 49 0 3 153 3 152
120 -152 120 -152 43 0 42 -1 -2 238 -3 237 -40 0 -40 0 -3 -153 c-1 -86 -7
-152 -12 -150 -5 2 -63 72 -129 156 -113 141 -124 152 -154 152 -19 0 -37 -3
-40 -7z"/>
<path d="M5705 7751 c-2 -5 -7 -27 -11 -49 -12 -74 -14 -75 -139 -61 -204 22
-380 -1 -602 -77 -178 -61 -338 -159 -475 -293 -37 -36 -69 -63 -72 -60 -2 2
-13 29 -24 59 -12 30 -36 93 -55 140 -18 47 -42 107 -51 133 -10 27 -25 51
-33 54 -17 7 -153 -46 -153 -59 0 -5 50 -108 111 -229 l110 -219 -45 -73 c-69
-110 -115 -216 -139 -316 -25 -105 -24 -105 -132 -70 l-65 22 0 126 c-1 69 -1
198 0 287 1 148 -1 162 -20 187 -11 14 -29 29 -40 32 -10 3 -85 -13 -165 -35
-91 -26 -156 -39 -171 -36 -14 4 -23 10 -20 15 3 4 -5 19 -17 32 -12 13 -22
28 -22 33 0 6 -11 16 -25 23 -14 7 -24 17 -23 23 2 5 -6 14 -16 20 -15 8 -19
7 -17 -7 2 -8 9 -21 18 -27 8 -6 21 -22 28 -35 15 -29 27 -45 58 -76 12 -12
22 -27 22 -33 0 -24 27 -21 176 19 116 32 160 40 173 32 14 -9 16 -45 19 -310
l2 -300 103 -34 c94 -31 102 -36 99 -58 -1 -14 -4 -26 -5 -27 -3 -3 -67 14
-164 42 -29 9 -57 13 -62 10 -25 -16 -31 42 -31 323 0 160 -4 291 -8 291 -5 0
-75 -18 -157 -41 l-148 -40 -31 30 c-18 17 -37 31 -44 31 -7 0 -12 8 -12 18 0
9 -9 23 -20 30 -11 7 -20 18 -20 26 0 13 -19 26 -47 32 -19 3 -15 -8 12 -39
15 -17 30 -25 38 -21 6 4 9 4 5 -1 -8 -9 21 -70 29 -61 3 3 14 -9 23 -27 31
-58 54 -63 156 -39 49 12 108 28 132 36 31 11 42 12 43 3 1 -7 2 -130 3 -274
1 -254 2 -263 22 -284 12 -12 35 -22 50 -23 16 -2 38 -7 49 -13 26 -14 81 -30
127 -38 56 -9 56 -30 1 -136 -45 -86 -48 -96 -48 -168 0 -61 5 -85 25 -125 30
-58 91 -108 168 -136 32 -11 64 -23 72 -26 21 -8 -14 -22 -58 -23 -38 -1 -54
9 -192 119 -205 164 -319 250 -342 259 -13 4 -66 11 -118 15 -52 4 -135 11
-185 16 -132 14 -165 13 -165 -6 0 -8 -4 -13 -9 -9 -5 3 -12 1 -15 -4 -4 -5 2
-8 11 -6 10 1 25 -1 33 -5 8 -4 53 -10 100 -13 47 -4 143 -11 214 -18 l129
-11 61 -47 c34 -25 95 -73 136 -106 42 -33 117 -91 168 -129 51 -38 89 -73 84
-78 -4 -4 -21 -10 -38 -14 -25 -5 -38 0 -65 23 -19 16 -95 76 -169 133 -74 58
-137 107 -140 110 -36 40 -62 48 -188 55 -70 4 -137 8 -150 10 -19 3 -21 1
-12 -10 9 -11 5 -14 -22 -18 -30 -4 -29 -4 7 -4 22 0 47 -3 55 -6 8 -3 45 -8
83 -11 56 -6 68 -4 74 10 5 12 7 13 14 2 8 -13 12 -14 44 -17 8 0 49 -29 92
-64 176 -141 253 -198 262 -193 5 4 12 -3 16 -14 4 -11 11 -17 17 -14 6 4 9 1
6 -7 -7 -21 -90 -59 -113 -52 -11 3 -25 13 -32 23 -6 9 -31 29 -55 45 -24 16
-62 45 -86 64 -48 38 -33 37 -272 25 l-134 -7 -82 88 c-58 64 -83 85 -89 75
-6 -9 -4 -11 4 -5 9 5 12 1 9 -13 -2 -13 22 -51 66 -107 l69 -87 45 6 c25 3
109 9 186 12 l141 6 93 -72 c50 -39 92 -74 92 -77 0 -8 -33 -32 -45 -33 -6 0
-44 27 -85 61 l-75 61 -65 -6 c-36 -3 -121 -8 -190 -12 l-125 -6 -89 103
c-100 116 -136 154 -136 142 0 -4 -4 -2 -9 6 -5 8 -17 16 -26 17 -15 2 -15 1
-1 -15 9 -10 16 -20 16 -24 0 -3 19 -27 43 -52 23 -26 47 -55 52 -65 6 -10 37
-49 69 -86 l60 -67 194 6 194 7 59 -46 c32 -25 59 -48 59 -52 0 -4 -33 -33
-74 -65 -99 -78 -203 -187 -261 -274 -26 -40 -48 -73 -49 -74 -2 -2 -271 -27
-488 -45 l-208 -18 0 -27 c0 -14 3 -41 6 -58 8 -38 19 -39 194 -11 376 60 430
66 430 50 0 -7 -12 -35 -26 -64 -35 -70 -91 -266 -105 -371 -11 -87 -7 -333 6
-388 7 -24 4 -29 -31 -43 -189 -77 -211 -99 -200 -201 4 -32 11 -98 17 -148
17 -158 19 -172 33 -172 18 0 20 75 5 246 -12 141 -12 144 8 161 12 9 86 43
164 75 79 32 167 69 194 83 28 14 53 25 58 24 4 -1 7 3 7 10 0 6 2 9 6 6 3 -3
28 3 57 14 91 34 401 170 415 180 6 6 12 7 12 4 0 -10 38 27 41 39 1 6 9 16
18 23 23 17 -10 5 -219 -83 -96 -41 -249 -105 -340 -144 l-165 -69 -7 26 c-15
55 -20 229 -9 322 17 139 47 251 101 372 165 372 510 657 885 732 44 9 152 20
240 25 151 9 166 12 266 49 130 49 174 57 230 42 51 -14 134 -91 126 -119 -2
-9 -125 -179 -273 -376 -293 -391 -385 -517 -404 -554 l-12 -23 26 18 c14 11
26 23 26 27 0 5 5 5 10 2 6 -3 10 2 11 12 0 12 2 13 6 5 3 -9 12 -4 27 16 56
76 657 875 757 1007 306 401 289 377 281 410 -9 30 -11 27 -321 -378 l-75 -98
-38 45 c-79 92 -193 113 -338 62 -164 -58 -190 -65 -267 -67 -71 -2 -84 1
-119 24 -22 15 -72 38 -113 51 -99 34 -136 59 -168 114 -43 73 -37 126 24 243
45 85 51 105 61 195 40 351 247 663 574 868 220 137 532 212 775 187 220 -23
369 -77 578 -211 80 -51 123 -67 243 -91 79 -15 141 -55 172 -111 19 -34 24
-56 23 -109 -1 -74 -9 -92 -73 -170 -45 -55 -46 -55 -180 -99 -162 -52 -220
-77 -219 -93 0 -9 2 -9 6 1 2 6 12 12 20 12 13 0 14 -2 2 -17 -13 -16 -12 -17
3 -4 10 7 16 16 13 20 -5 10 27 7 43 -3 7 -4 71 12 150 39 l137 47 117 133
c116 133 116 134 108 172 -5 21 -14 86 -21 144 -11 98 -14 106 -32 101 -14 -3
-18 -1 -13 6 4 7 2 12 -4 12 -6 0 -9 -8 -6 -17 18 -64 25 -147 14 -158 -2 -2
-22 20 -46 50 -52 68 -115 101 -242 127 -92 19 -136 38 -191 83 -34 28 -169
98 -241 125 -32 12 -60 25 -62 28 -3 4 3 33 11 65 9 31 14 60 11 63 -12 11
-128 42 -133 35z m-2548 -1716 c0 -8 -4 -12 -9 -9 -5 3 -6 10 -3 15 9 13 12
11 12 -6z"/>
<path d="M6704 7468 c3 -10 2 -19 -2 -22 -14 -9 -12 -68 8 -224 11 -86 20
-166 20 -177 0 -12 -55 -85 -128 -171 l-128 -150 -127 -42 c-70 -24 -148 -52
-172 -62 -25 -11 -46 -19 -48 -18 -1 0 -21 -9 -44 -20 -44 -23 -59 -37 -46
-45 7 -4 331 95 387 118 18 8 18 4 11 -51 -18 -148 -79 -303 -175 -445 -56
-82 -197 -222 -280 -277 -61 -41 -67 -43 -115 -36 -27 3 -90 25 -140 47 -78
35 -100 40 -165 41 -62 1 -84 -4 -127 -25 -29 -14 -53 -22 -53 -18 0 4 50 74
111 156 61 81 115 156 121 166 8 16 7 18 -12 12 -17 -5 -21 -4 -15 6 4 8 -10
-3 -30 -24 -20 -21 -33 -43 -29 -49 4 -6 3 -8 -3 -5 -11 7 -246 -297 -246
-318 0 -8 -4 -12 -8 -10 -10 7 -122 -142 -115 -154 4 -5 1 -13 -5 -17 -8 -5
-10 -3 -4 7 31 55 -189 -226 -330 -421 -30 -41 -113 -154 -184 -250 -120 -160
-152 -214 -118 -194 6 4 4 -2 -6 -13 -11 -13 -14 -23 -8 -27 6 -4 146 175 312
396 166 222 305 404 310 406 5 2 11 -9 15 -25 4 -15 35 -86 70 -158 66 -138
77 -170 100 -298 28 -160 12 -404 -36 -560 -122 -395 -414 -728 -779 -887
-120 -52 -249 -80 -411 -90 -129 -7 -154 -12 -225 -40 -195 -79 -297 -28 -350
175 -23 85 -37 116 -95 205 -75 114 -140 243 -140 275 0 16 19 28 98 59 110
44 558 235 614 262 44 20 42 33 -4 27 -18 -2 -39 -4 -45 -5 -7 -1 -13 -6 -13
-11 0 -6 -3 -8 -6 -4 -10 9 -64 -14 -57 -26 3 -5 1 -7 -5 -3 -10 6 -48 -9
-542 -214 -135 -56 -253 -104 -262 -107 -22 -6 -22 -16 -3 -173 18 -144 21
-156 40 -163 15 -6 15 73 0 225 l-8 78 48 20 c27 12 55 19 63 18 8 -2 24 -30
37 -63 33 -88 88 -195 129 -247 48 -64 64 -97 82 -175 22 -94 37 -125 85 -178
51 -55 81 -72 149 -85 61 -12 129 1 215 40 52 23 80 28 189 34 197 10 342 44
478 112 37 19 72 34 77 34 5 0 12 -32 16 -70 7 -65 5 -73 -18 -103 -17 -22
-22 -38 -17 -47 7 -11 18 -5 51 28 39 40 41 46 36 85 -21 146 -22 133 7 152
15 10 29 15 32 12 3 -3 10 -52 16 -109 l10 -105 -35 -54 c-49 -77 -69 -124
-65 -151 l3 -23 28 27 c20 20 26 35 23 53 -3 14 0 25 5 25 5 0 27 26 47 59
l38 58 -14 129 -14 129 33 25 c18 14 73 63 121 109 48 47 91 81 95 77 4 -4 9
-73 10 -154 l2 -147 130 -126 131 -126 0 -96 c0 -53 4 -97 8 -97 24 0 32 30
32 118 l0 93 -130 132 -130 131 0 178 0 178 30 32 29 33 2 -130 c1 -71 3 -163
5 -204 l3 -75 125 -125 126 -126 0 -93 c0 -101 12 -141 35 -122 17 14 18 188
3 230 -11 28 -89 101 -100 94 -5 -3 -8 1 -8 8 0 7 -32 44 -70 83 l-71 71 -3
219 c-5 261 -1 281 39 213 112 -195 396 -433 591 -498 58 -20 67 -27 142 -118
135 -166 149 -177 249 -207 134 -42 185 -55 216 -55 15 0 27 -4 27 -8 0 -4 9
-8 19 -8 16 0 17 4 10 18 -5 10 -13 17 -17 16 -4 0 -23 6 -42 14 -19 9 -87 30
-150 48 -63 18 -121 38 -129 44 -7 6 -76 84 -152 173 l-137 163 -7 68 c-4 37
-13 110 -22 162 -8 52 -15 100 -15 107 -1 7 -5 10 -10 7 -4 -3 -8 -1 -8 3 0 5
-7 18 -15 29 -17 22 -17 24 14 -228 9 -76 13 -138 9 -138 -19 0 -127 61 -183
102 -138 103 -288 265 -350 379 l-27 51 35 76 c44 98 81 214 104 322 22 109
23 393 1 488 -8 34 -13 62 -10 62 12 0 82 -45 86 -55 2 -6 41 -117 86 -246 45
-129 91 -260 102 -291 12 -33 25 -55 32 -52 30 11 23 36 -152 539 l-28 80 -79
45 c-65 37 -81 52 -89 78 -5 18 -6 35 -3 38 3 4 54 -20 114 -52 l108 -59 43
-125 c24 -69 66 -188 94 -265 28 -77 55 -152 60 -167 5 -15 18 -30 29 -33 11
-4 16 -11 13 -17 -4 -7 -2 -8 4 -4 7 4 12 2 12 -5 0 -7 2 -10 4 -8 6 6 -125
392 -204 601 -23 63 -10 54 -250 180 -46 24 -71 45 -84 70 l-20 35 33 49 c17
27 39 73 47 104 34 120 46 149 80 183 41 40 105 62 167 55 23 -3 80 -22 127
-42 75 -33 98 -39 210 -47 259 -20 417 -70 602 -192 373 -244 581 -642 565
-1077 -8 -210 -42 -327 -151 -518 -44 -77 -60 -118 -76 -190 -22 -103 -36
-135 -77 -174 -67 -64 -149 -73 -288 -32 -60 18 -118 27 -175 29 -47 1 -122 3
-167 5 l-81 3 -46 46 c-50 51 -50 52 -76 252 -8 62 -16 86 -26 86 -10 0 -11
-4 -3 -13 7 -8 6 -14 -2 -20 -8 -4 -9 -3 -5 4 4 7 2 12 -3 12 -14 0 -13 -26 2
-165 10 -92 17 -116 37 -142 67 -82 231 -273 241 -278 20 -13 204 -62 209 -56
3 3 16 7 30 7 21 2 22 0 7 -11 -15 -10 -12 -13 22 -23 48 -15 54 -15 45 1 -4
6 3 3 16 -8 l23 -20 -12 22 c-13 25 -36 40 -72 46 -13 2 -36 9 -50 15 -48 19
-111 33 -126 28 -8 -3 -12 -2 -8 3 3 5 -8 12 -24 16 -20 4 -43 24 -71 61 -23
31 -40 57 -38 58 1 2 68 0 148 -5 104 -5 163 -13 208 -28 43 -14 89 -21 140
-21 163 1 253 84 288 268 9 51 26 96 48 132 76 124 128 247 162 380 15 61 19
111 19 270 0 213 -6 251 -62 420 -36 107 -88 212 -155 313 -22 31 -37 61 -34
65 3 5 134 8 291 7 200 -2 288 1 293 9 6 11 4 137 -3 145 -3 3 -305 -20 -455
-34 -25 -2 -89 -7 -142 -11 -90 -6 -98 -5 -105 12 -3 10 -11 22 -17 26 -15 10
-15 35 0 35 7 0 11 -4 9 -8 -3 -3 2 -12 9 -18 12 -10 14 -8 10 11 -2 13 -2 17
2 10 3 -6 11 -9 16 -6 7 4 8 2 4 -5 -5 -8 0 -10 18 -7 14 3 26 0 26 -6 0 -5
-6 -8 -13 -5 -8 3 -20 1 -28 -4 -8 -5 16 -7 61 -5 41 2 90 4 108 5 30 1 32 3
32 39 0 51 -12 66 -44 58 -14 -3 -26 -12 -26 -19 0 -9 -2 -9 -9 1 -5 9 -17 11
-35 6 -21 -5 -24 -9 -14 -15 7 -5 8 -9 3 -9 -6 0 -16 5 -23 12 -7 7 -12 8 -12
2 0 -5 -15 -10 -33 -10 -17 -1 -51 -4 -73 -7 -34 -5 -49 -1 -81 21 -135 91
-165 111 -176 115 -30 11 13 17 213 33 l215 17 95 -53 c224 -125 217 -122 242
-108 13 7 27 11 31 10 5 -1 6 2 2 8 -3 5 -1 10 5 10 7 0 48 27 92 60 43 33 82
60 86 60 15 1 85 70 71 70 -8 0 -20 -5 -27 -12 -7 -7 -12 -8 -12 -3 0 5 -12
-2 -27 -16 -14 -13 -23 -17 -19 -9 4 8 0 6 -8 -4 -9 -11 -16 -17 -16 -13 0 4
-43 -24 -96 -63 -53 -38 -99 -68 -103 -66 -3 2 -71 41 -151 86 l-145 83 -75
-1 c-41 -1 -166 -9 -277 -18 l-201 -17 -57 23 c-30 12 -54 24 -52 26 5 5 405
42 543 50 l121 7 124 -70 c143 -81 175 -94 165 -68 -5 14 -4 16 7 7 15 -13 27
-6 27 14 0 7 -8 10 -17 8 -10 -3 -79 29 -156 72 -126 71 -143 77 -190 76 -86
-3 -341 -22 -358 -28 -9 -2 -56 -6 -105 -8 -49 -2 -141 -10 -204 -17 -63 -7
-128 -9 -144 -5 l-29 7 29 30 c59 62 92 74 217 78 16 1 26 4 24 9 -3 4 46 8
108 8 137 2 175 8 205 34 13 11 19 20 14 20 -5 1 2 7 16 15 14 8 22 14 17 15
-4 0 16 24 46 53 29 28 83 87 121 130 51 58 62 74 41 63 -16 -8 -33 -12 -38
-9 -6 3 -7 2 -4 -3 3 -6 -14 -26 -38 -45 -26 -20 -52 -53 -65 -82 -17 -36 -25
-45 -35 -37 -9 8 -24 -3 -57 -42 l-45 -53 -198 -23 c-109 -12 -200 -21 -201
-19 -2 2 9 18 24 36 l27 32 155 15 c161 16 196 28 171 58 -9 11 -9 16 0 22 7
4 9 3 5 -4 -11 -18 11 -23 25 -5 12 14 12 16 0 8 -10 -5 -12 -4 -7 4 4 6 11 9
15 7 4 -3 39 30 78 72 119 131 124 137 110 152 -9 9 -9 11 0 6 6 -3 15 -1 19
5 4 8 3 9 -4 5 -7 -4 -12 -2 -12 4 0 6 -37 -28 -82 -77 -197 -210 -175 -192
-253 -202 -142 -19 -175 -22 -175 -16 0 4 15 30 34 58 90 135 147 289 166 446
l13 104 150 176 c83 97 156 181 162 187 52 54 218 235 234 255 l20 26 -38 37
c-22 21 -46 36 -54 34 -8 -1 -61 -59 -117 -128 -56 -69 -106 -126 -110 -128
-9 -3 -22 34 -22 66 -1 12 -7 22 -14 22 -10 0 -11 6 -5 23 13 33 4 141 -14
180 -9 18 -13 24 -11 15z m-1153 -1291 c-10 -9 -11 -8 -5 6 3 10 9 15 12 12 3
-3 0 -11 -7 -18z m-147 -195 c3 -5 -1 -9 -9 -9 -8 0 -12 4 -9 9 3 4 7 8 9 8 2
0 6 -4 9 -8z m-141 -294 c-15 -64 -25 -78 -55 -78 -28 0 -32 20 -9 48 12 15
31 42 44 59 12 18 25 33 28 33 4 0 0 -28 -8 -62z m-83 -32 c0 -2 -8 -10 -17
-17 -16 -13 -17 -12 -4 4 13 16 21 21 21 13z m1740 -90 c0 -3 -4 -8 -10 -11
-5 -3 -10 -1 -10 4 0 6 5 11 10 11 6 0 10 -2 10 -4z"/>
<path d="M6591 7423 c-1 -6 -4 -20 -7 -30 -5 -17 -5 -17 6 0 6 10 9 23 6 30
-3 9 -5 9 -5 0z"/>
<path d="M6029 6683 c-13 -16 -12 -17 4 -4 9 7 17 15 17 17 0 8 -8 3 -21 -13z"/>
<path d="M7180 5981 c-26 -10 -46 -24 -48 -34 -4 -22 18 -53 28 -38 3 6 22 12
41 14 29 2 34 6 37 31 5 41 -7 46 -58 27z"/>
<path d="M7414 5824 c-18 -14 -18 -15 4 -4 12 6 22 13 22 15 0 8 -5 6 -26 -11z"/>
<path d="M7305 5777 c-26 -22 -33 -34 -22 -34 9 0 14 4 11 9 -3 4 4 8 16 8 12
0 19 4 15 9 -3 5 4 12 15 16 11 3 20 11 20 16 0 17 -16 10 -55 -24z"/>
<path d="M7210 4679 c-6 -22 -14 -47 -17 -55 -3 -9 7 -19 31 -29 51 -22 63
-19 74 18 25 81 25 83 -17 95 -56 17 -59 16 -71 -29z"/>
<path d="M7631 4534 c-12 -37 -20 -68 -19 -70 2 -1 45 -19 96 -39 105 -42 106
-42 134 32 22 58 23 83 3 83 -13 0 -139 39 -177 55 -14 5 -20 -5 -37 -61z"/>
<path d="M4565 3350 c-3 -5 -3 -10 1 -10 4 0 -5 -14 -21 -30 -21 -22 -26 -33
-18 -41 8 -8 15 -5 24 12 7 13 12 25 11 27 -1 1 -2 5 -2 10 0 4 5 0 10 -8 8
-13 10 -12 10 3 0 12 4 16 13 11 7 -5 6 0 -3 11 -9 11 -10 16 -2 11 6 -4 12
-2 12 3 0 14 -27 14 -35 1z"/>
<path d="M4326 2873 c-3 -4 -6 -16 -6 -29 0 -12 -4 -24 -9 -26 -5 -1 -12 -15
-16 -29 -6 -26 -4 -28 75 -54 57 -19 85 -24 92 -17 16 16 24 117 9 108 -6 -4
-11 -2 -11 5 0 7 -3 9 -7 6 -3 -4 -12 -2 -20 4 -7 6 -13 8 -13 4 0 -4 -8 -1
-17 6 -14 12 -16 12 -9 -1 5 -9 2 -8 -7 2 -11 14 -16 15 -27 5 -8 -8 -11 -8
-7 -1 7 13 -17 27 -27 17z"/>
<path d="M4245 2441 c-80 -20 -154 -89 -175 -167 -19 -69 -8 -158 27 -208 44
-62 109 -98 190 -103 172 -13 278 80 278 242 0 58 -5 78 -28 117 -58 100 -175
147 -292 119z m143 -92 c58 -29 86 -87 80 -166 -8 -90 -67 -143 -158 -143 -90
0 -150 64 -150 160 0 70 25 118 76 147 49 29 96 29 152 2z"/>
<path d="M5450 2435 c-58 -19 -115 -66 -142 -118 -29 -56 -31 -165 -4 -220 42
-84 108 -128 207 -135 133 -9 247 63 177 112 -19 14 -25 13 -65 -11 -37 -21
-53 -25 -99 -21 -98 8 -148 69 -141 171 4 61 22 95 71 131 40 30 134 29 175
-2 38 -28 42 -27 70 2 28 29 23 38 -33 71 -55 32 -151 41 -216 20z"/>
<path d="M2680 2206 l0 -236 170 0 170 0 0 34 c0 22 -6 36 -16 40 -9 3 -65 6
-125 6 l-109 0 -2 193 -3 192 -42 3 -43 3 0 -235z"/>
<path d="M3130 2205 l0 -235 44 0 c26 0 45 5 48 13 4 12 4 49 0 325 l-2 132
-45 0 -45 0 0 -235z"/>
<path d="M3400 2206 l0 -236 40 0 c25 0 41 5 41 13 1 6 1 72 -1 145 -1 72 2
132 7 132 5 0 39 -57 77 -126 62 -114 70 -125 94 -122 22 3 36 22 91 125 37
67 69 123 74 123 4 0 7 -66 7 -146 l0 -145 43 3 42 3 3 233 2 232 -40 0 c-46
0 -49 -4 -155 -199 -33 -61 -63 -110 -66 -111 -4 0 -18 21 -32 48 -14 26 -52
94 -84 152 l-59 105 -42 3 -42 3 0 -235z"/>
<path d="M4714 2427 c-2 -7 -3 -111 -2 -232 l3 -220 40 0 40 0 3 143 c2 108 6
142 15 139 7 -2 64 -67 127 -145 l114 -142 43 0 43 0 0 235 0 235 -45 0 -45 0
0 -151 c0 -116 -3 -150 -12 -147 -7 3 -66 71 -132 151 -111 137 -121 147 -153
147 -18 0 -36 -6 -39 -13z"/>
<path d="M5850 2206 l0 -236 50 0 50 0 0 100 0 100 114 0 113 0 7 -52 c3 -29
6 -74 6 -100 l0 -48 45 0 45 0 0 236 0 235 -47 -3 -48 -3 -3 -92 -3 -93 -114
0 -114 0 -3 93 -3 92 -47 3 -48 3 0 -235z"/>
<path d="M6583 2403 c-8 -21 -53 -124 -99 -230 -46 -106 -84 -195 -84 -198 0
-3 20 -5 46 -5 45 0 45 0 66 50 l21 50 113 0 114 0 25 -50 c24 -47 27 -50 65
-50 29 0 40 4 40 15 0 13 -52 136 -167 398 l-26 57 -49 0 c-47 0 -50 -1 -65
-37z m87 -104 c7 -23 22 -66 35 -95 13 -29 21 -55 17 -58 -10 -10 -152 -7
-152 4 0 20 72 190 81 190 4 0 13 -19 19 -41z"/>
<path d="M7014 2427 c-2 -7 -3 -111 -2 -232 l3 -220 48 -3 47 -3 0 235 0 236
-45 0 c-28 0 -48 -5 -51 -13z"/>
<path d="M7284 2427 c-2 -7 -3 -111 -2 -232 l3 -220 40 0 40 0 3 143 c1 87 6
142 12 140 6 -2 61 -66 123 -143 l112 -140 48 -3 47 -3 -2 233 -3 233 -45 0
-45 0 -5 -154 -5 -154 -125 156 c-116 145 -127 157 -158 157 -18 0 -35 -6 -38
-13z"/>
<path d="M2464 1686 c-12 -31 1 -51 32 -54 27 -3 32 1 37 25 3 15 3 31 0 35
-8 14 -63 8 -69 -6z"/>
<path d="M2580 1615 l0 -25 196 0 195 0 -3 23 c-3 22 -4 22 -195 25 l-193 2 0
-25z"/>
<path d="M7560 1610 l0 -30 144 0 c117 0 145 3 150 15 12 33 -18 41 -158 43
l-136 2 0 -30z"/>
<path d="M3510 1565 l0 -25 -136 0 -135 0 3 -27 c3 -25 7 -26 53 -27 47 -1 50
-3 53 -28 l3 -28 -71 0 c-68 0 -71 -1 -68 -22 3 -21 9 -23 68 -25 36 0 73 -1
83 -2 11 -1 17 -9 17 -26 0 -32 20 -37 145 -33 l100 3 5 30 5 30 1703 0 1702
0 0 23 c0 19 -5 22 -35 22 -31 0 -35 3 -35 25 l0 25 -105 0 -105 0 0 30 0 29
-77 3 c-72 3 -78 5 -81 26 -3 19 -10 22 -43 22 -32 0 -41 -4 -48 -22 l-9 -23
-1276 3 c-1124 2 -1276 4 -1276 17 0 11 -11 15 -39 15 -31 0 -40 -4 -44 -21
-5 -19 -11 -21 -44 -16 -21 4 -66 7 -100 7 -56 0 -63 2 -63 20 0 18 -7 20 -75
20 -73 0 -75 -1 -75 -25z m200 -105 l0 -30 -155 0 -155 0 0 23 c0 13 2 26 5
28 2 3 72 6 155 7 l150 2 0 -30z"/>
<path d="M7000 1566 c0 -22 5 -25 43 -28 37 -3 42 -6 45 -30 l3 -28 187 -2
187 -3 -3 -27 -3 -28 155 0 156 0 0 30 0 30 -120 0 -120 0 0 30 0 30 -85 0
c-82 0 -85 1 -91 25 l-6 25 -174 0 -174 0 0 -24z"/>
<path d="M2693 1533 c-7 -3 -13 -16 -13 -29 0 -18 5 -24 21 -24 36 0 19 -34
-19 -38 -26 -3 -32 -7 -32 -28 0 -24 0 -24 105 -24 96 0 105 2 105 19 0 10 -9
21 -21 24 -15 4 -20 12 -17 29 3 24 -1 24 306 28 17 0 22 6 22 25 l0 25 -222
-1 c-123 -1 -229 -3 -235 -6z"/>
<path d="M2482 1382 c-7 -2 -12 -17 -12 -33 0 -29 2 -30 38 -27 32 3 37 7 40
29 3 23 -1 27 -26 31 -16 2 -34 2 -40 0z"/>
<path d="M7310 1354 c0 -23 3 -25 33 -22 24 2 33 8 35 26 3 19 -1 22 -32 22
-32 0 -36 -3 -36 -26z"/>
<path d="M6620 1310 c0 -29 1 -30 50 -30 49 0 50 1 50 30 0 29 -1 30 -50 30
-49 0 -50 -1 -50 -30z"/>
<path d="M7050 1300 c0 -28 3 -30 35 -30 32 0 35 2 35 30 0 28 -3 30 -35 30
-32 0 -35 -2 -35 -30z"/>
<path d="M3887 1313 c-4 -3 -7 -19 -7 -35 0 -25 3 -28 34 -28 36 0 47 15 38
53 -4 17 -51 25 -65 10z"/>
<path d="M2686 1276 c-3 -11 -2 -24 3 -29 4 -4 46 -4 94 -1 83 7 87 8 87 31 0
24 -1 24 -89 22 -82 -1 -90 -3 -95 -23z"/>
<path d="M6889 1290 c-6 -4 -9 -18 -7 -31 2 -20 10 -25 41 -27 35 -3 37 -2 37
26 0 25 -4 30 -30 34 -16 3 -35 1 -41 -2z"/>
</g>
</svg>
