<?xml version="1.0" encoding="UTF-8" standalone="no"?>
<svg id="svg2" xmlns:rdf="http://www.w3.org/1999/02/22-rdf-syntax-ns#" xmlns="http://www.w3.org/2000/svg" height="988pt" width="548pt" version="1.1" xmlns:cc="http://creativecommons.org/ns#" xmlns:dc="http://purl.org/dc/elements/1.1/" viewBox="0 0 548 988">
<path id="path4" d="m307.28 20.24c44.03-8.58 89.78-21.47 134.59-11.11 16.16 3.73 25.71 19.96 24.24 36 0.11 47.59-36.55 87.89-79.09 104.9-40.14 18.79-82.18 33.17-124.67 45.62 1.1 17.18 13.86 31.44 16.84 48.48-1.7 4.7-0.21 12.17-5.22 14.97-6.46-3.18-10.67-9.42-16.7-13.26-9.61-21.12-22.22-40.73-32.68-61.43-14.27-28.95-40.99-49.24-68.86-64.1-15.28-5.39 5.64-21.93-1.22-32.78 31.41-3.26 49.73 25.65 70.64 43.71 5.97-46.51 36.95-93.21 82.13-111m103.41 15.3c-35.2 6.93-73.03 2.95-105.96 19.18-30.42 15.01-43.9 50.62-43.11 82.9 30.03-19.14 59.62-40.08 89.99-59.01 5.21-2.43 17.48-7.31 12.65 4.27-22.97 18.16-44.84 37.9-69.41 53.97-12.45 9.6-27.71 17.19-36.72 30.4 49.68-5.09 96.66-25.17 139.94-49.19 27.57-13.93 43.49-43.74 43-74.1-3.93-13.32-20.41-8.33-30.38-8.42z" fill="#9c6"/>
<path id="path6" d="m411.46 50.37c11.2-2.43 4.79 16.12 10.39 21.88-9.73 2.09-19.74-2.2-28.63-5.74-0.77-9.99 9.62-15.48 18.24-16.14z" fill="#9c6"/>
<path id="path8" d="m317.24 240.38c-0.61-13.17 18.07-17.78 24.81-7.33 12.43 14.78 32.52 13.19 48.84 20.09 69.43 25.76 108.13 96.59 129.38 163.58 32.63 112.43 33.68 234.49 0.32 346.87-11.3 34.88-26.66 69.27-50.61 97.4-40.32 44.91-86.26 86.81-141.43 112.55-34.66 16-75.88 10.69-108.62-7.46-66.52-38.35-107.56-105.62-157.24-161.79-54.66-78.34-68-179.62-56.05-272.65 4.15-40.25 20.18-77.74 35.17-114.84 17.6-55.55 62.46-96.06 106.71-131.26 11-12.39 15.56-37.22 36.97-33.47 8.17-0.29 3.98 14.2 13.09 10.72 19.45-6.15 38.18-14.77 58.69-16.95 6.03 3.84 10.24 10.08 16.7 13.26 5.01-2.8 3.52-10.27 5.22-14.97 12.71-0.71 25.49-1.73 38.05-3.75m-29.58 47.18c-8.81 1.42-17.8 1.2-26.59 2.54 0.43 6.03 9.8 5.7 14.14 8.67 17.33 5.92 17.68 26.27 20.52 41.23 2.6-17.39 6.2-34.92 5.88-52.5-4.54-1.35-9.35-0.15-13.95 0.06m36.68 13.55c-1.79 43.79-12.75 86.67-15.91 130.42-2.85 32.32 5.67 63.97 9.6 95.78 4.54-22.11 0.49-45.94 3.75-68.56-1.25-52.18 7.25-107.57 2.56-157.64m-98.97 2.56c-8.73 3.57-26.42 10.44-21.42 22.02 10.19-1.13 23.07-12.8 21.42-22.02m123.89-0.5c-3.49 69.66-0.54 141.99-3.34 212.72 0.49 1.34 1.47 4.02 1.97 5.36 8.3-53.2 16.23-107.42 35.46-157.94 8.08-3.2 18.81-4.38 27.41-2.05 11.2 44.2 5.52 90.46-0.38 135-9.63 59.18-24.74 117.29-41.25 174.86-1.31 10.13-7.76 20.98-6.57 30.64 29.2-26.66 31.94-69.26 53.35-100.85 37.3-54.94 32.23-124.5 26.57-187.41-3.48-23.13-3.84-49.5-22.44-66.54-19.69-19.37-43.67-37.39-70.78-43.79m-79.27 24.98c-0.3 170.58 12.24 340.8 11.18 511.39 0.55 3.16 7.21 1.04 6.74-1.94-0.18-14.98 5.38-29.55 2.04-44.52-5.2-80.43-5.84-161.21-11.45-241.58-11.39-56.58 11.7-113.08 1.59-169.62-2.81-17.23-1.11-40.17-10.1-53.73m-57.53 24.03c-8.13 8.9-8.56 25.52-4.5 34.83 3.32-9.07 6.41-26.6 4.5-34.83m28.71 0.87c-6.1 75.24-20.17 150.43-13.27 226.06 4.82 59.59 1.24 124.46 21.18 179.81-3.57-95.92-3.91-191.98-7.13-287.91-1.51-39 4.1-80.22-0.78-117.96m232.78 48.33c0.39 20.79 3.9 41.43 4.05 62.25 8.91-0.51 20.04-10.46 12.64-20.13-6.34-13.25-5.09-34.6-16.69-42.12m-398.94 23.67c-2.5 11.37 6.32 3.41 0 0m34.41 19.29c-2.83 2.04-2.72 6.4-3.58 9.59 3.06-1.11 4.5-8.57 3.58-9.59m276.77 1.07c-10.24 52.5-19.84 105.73-24.63 158.76 13.65-51.58 28.3-105.19 24.63-158.76m-317.74 2c-19.09 33.69-22.89 74.67-28.35 112.66-0.99 12.9 7.38-0.18 7.06-5.01 7.94-35.91 15.14-72.02 22.83-107.99-0.39 0.08-1.15 0.25-1.54 0.34m75.69 1.82c-1.38 16.39-5.76 32.43-6.06 48.93 0.08 55.55-4.71 111.71 5.02 166.76 7.38 48.13 20.15 95.38 35.41 141.53 2.12 3.01 2.86 9.55 7.25 9.19-12.1-122.05-37.81-245.1-41.62-366.41m349.28 27.02c-7.76 3.63-10.16 13.09-12.7 20.59-4.49 32.03-6.65 64.31-12.81 96.09-2.79 30.19-17.17 58.82-12.6 89.65 2.35 18.14-7.11 37.5-6.2 54.2 30.25-19.89 41.12-58.73 45.56-93.06 12.27-54.99 12.56-112.51 1.17-167.65-0.61 0.05-1.82 0.13-2.42 0.18m-395.01 32.75c-19.3 25.36-16.21 60.09-15.43 90.13-1.02 50.8 6.44 105.61 38.4 146.99 3.34-7.48-2.51-19.03-3.69-27.8-17.34-66.48-19.52-136.01-16.57-204.31 1.3-3.72 0.4-5.39-2.71-5.01m204.4 46.08c-1.61 61.63-0.19 123.35-2 185-5.13 6.19 3.01 6.28 2.2 2.57 1.14-36.28 4.04-72.58 8.98-108.58 0.76-25.94-3.75-55.54-9.18-78.99m47.2 82.96c-2.32 10.24 6.18 2.44 0 0m146.34 60.24c-8.82 16.12-10.47 35.49-17.33 52.57 13.47-1.52 10.67-18.12 14.3-27.51 0.55-7.83 6.85-19 3.03-25.06m-99.96 2.81c-16.05 36.08-34.52 70.93-54.69 104.89-5.58-0.75-0.65-6.38 0.24-9.24 3.15-21.37 17.39-39.68 18.66-61.33-12.67-1.35-12.75 14.73-15.71 23.52-2.06 23.61-18.85 46.3-10.91 70.33 29.78-33.36 50.29-75.12 63.76-117.7-0.9-2.49 4.37-11.54-1.35-10.47m-315.36 49.22c6.48 31.35 29.98 57.64 53.78 77.88-15.19-27.32-32.12-56.44-53.78-77.88m348.49 83.19c-21.04-0.29-21.05 27.79-33.46 38.67-9.92 2.17-21.97-6.73-30.11 2.82-11.46 14.73-22.13 31.58-28.74 48.84 39.54-12.85 69.8-46.03 93.09-79.47 3.32-3.65 10.14-14.4-0.78-10.86m-102.05 6.87c-4.03 0.52-5.12 5.02-5.63 8.39 4.43 0.94 9.87-7.35 5.63-8.39m-16.05 18.98c-6.38 2.51-20.82 13.74-12.31 19.57 6.52-1.16 18.75-16.59 12.31-19.57m-47.21 15.62c-4.65 5.78-3.82 14.27-7.83 20.43-6.43 5.56-16.89-1.72-22.24-0.6 6.66 5.89 17.69 12.84 27.31 9.86 9.35-6.36 6.43-21.9 2.76-29.69z" fill="#fccc03"/>
</svg>
